# xmcd
#
# Track frame offsets: 
#        182
#        16922
#        39767
#        58490
#        87505
#        114940
#
# Disc length: 1885 seconds
#
# Revision: 3
# Processed by: cddbd v1.5.2PL0 Copyright (c) Steve Scherf et al.
# Submitted via: ExactAudioCopy v0.90b4
#
DISCID=43075b06
DTITLE=Ce Ce Peniston - Keep On Walkin' (Single)
DYEAR=1992
DGENRE=Dance
TTITLE0=Keep on Walkin' (7" Version)
TTITLE1=Keep on Walkin' (12" Original Mix)
TTITLE2=Keep on Walkin' (Silky Soul 7")
TTITLE3=Keep on Walkin' (Silky Soul 12")
TTITLE4=Keep on Walkin' (Maurice's Undergroud Vox)
TTITLE5=Keep on Walkin' (Silky Soul Dub)
EXTD=YEAR: 1992 ID3G: 3
EXTT0=
EXTT1=
EXTT2=
EXTT3=
EXTT4=
EXTT5=
PLAYORDER=
